<svg width="200px" height="200.00px" viewBox="0 0 1024 1024" version="1.1" xmlns="http://www.w3.org/2000/svg"><path  d="M866.158545 875.770828h-50.196686V418.434586H581.716687v-50.19798h262.133656c16.731798 0 27.888485 11.154101 27.888485 27.891071v479.650909l-5.580283-0.007758zM743.454384 647.104646h-78.081293c-11.154101 0-16.731798-11.154101-16.731798-16.73309 0-11.152808 11.154101-16.730505 16.731798-16.730505h78.081293c11.154101 0 16.734384 11.152808 16.734384 16.730505 5.57899 11.154101-5.580283 16.733091-16.734384 16.73309zM743.454384 529.976889h-78.081293c-11.154101 0-16.731798-11.154101-16.731798-16.733091 0-11.152808 11.154101-16.733091 16.731798-16.733091h78.081293c11.154101 0 16.734384 11.154101 16.734384 16.733091 5.57899 11.152808-5.580283 16.733091-16.734384 16.733091zM486.903596 647.104646h-78.081293c-11.154101 0-16.733091-11.154101-16.733091-16.73309 0-11.152808 11.152808-16.730505 16.733091-16.730505h78.081293c11.152808 0 16.731798 11.152808 16.731798 16.730505 0 11.154101-11.152808 16.733091-16.731798 16.73309zM353.045333 647.104646h-78.081293c-11.152808 0-16.731798-11.154101-16.731798-16.73309 0-11.152808 11.152808-16.730505 16.731798-16.730505h78.081293c11.154101 0 16.733091 11.152808 16.733091 16.730505 5.57899 11.154101-5.57899 16.733091-16.733091 16.73309zM486.903596 529.976889h-78.081293c-11.154101 0-16.733091-11.154101-16.733091-16.733091 0-11.152808 11.152808-16.733091 16.733091-16.733091h78.081293c11.152808 0 16.731798 11.154101 16.731798 16.733091 0 11.152808-11.152808 16.733091-16.731798 16.733091zM353.045333 529.976889h-78.081293c-11.152808 0-16.731798-11.154101-16.731798-16.733091 0-11.152808 11.152808-16.733091 16.731798-16.733091h78.081293c11.154101 0 16.733091 11.154101 16.733091 16.733091 5.57899 11.152808-5.57899 16.733091-16.733091 16.733091zM486.903596 412.85301h-78.081293c-11.154101 0-16.733091-11.152808-16.733091-16.731798 0-11.154101 11.152808-16.733091 16.733091-16.733091h78.081293c11.152808 0 16.731798 11.154101 16.731798 16.733091 0 11.152808-11.152808 16.731798-16.731798 16.731798zM353.045333 412.85301h-78.081293c-11.152808 0-16.731798-11.152808-16.731798-16.731798 0-11.154101 11.152808-16.733091 16.731798-16.733091h78.081293c11.154101 0 16.733091 11.154101 16.733091 16.733091 5.57899 11.152808-5.57899 16.731798-16.733091 16.731798zM486.903596 295.734303h-78.081293c-11.154101 0-16.733091-11.154101-16.733091-16.733091 0-11.152808 11.152808-16.733091 16.733091-16.733091h78.081293c11.152808 0 16.731798 11.154101 16.731798 16.733091 0 11.152808-11.152808 16.733091-16.731798 16.733091zM353.045333 295.734303h-78.081293c-11.152808 0-16.731798-11.154101-16.731798-16.733091 0-11.152808 11.152808-16.733091 16.731798-16.733091h78.081293c11.154101 0 16.733091 11.154101 16.733091 16.733091 5.57899 11.152808-5.57899 16.733091-16.733091 16.733091zM604.024889 875.770828h-50.196687V173.030141H208.039434v702.739394H157.841455V150.719354C157.841455 133.986263 168.994263 122.828283 185.731232 122.828283h390.407758c16.734384 0 27.891071 11.154101 27.891071 27.891071v725.051474h-0.005172zM899.623434 903.663192H118.798869C102.067071 903.663192 90.909091 892.509091 90.909091 875.772121s11.152808-27.889778 27.889778-27.889778h786.403555c16.731798 0 27.888485 11.154101 27.888485 27.889778-5.577697 16.731798-16.731798 27.889778-33.462303 27.889778h-0.005172v0.001293z" /></svg>