<?xml version="1.0" standalone="no"?><!DOCTYPE svg PUBLIC "-//W3C//DTD SVG 1.1//EN" "http://www.w3.org/Graphics/SVG/1.1/DTD/svg11.dtd"><svg t="1585493652531" class="icon" viewBox="0 0 1024 1024" version="1.1" xmlns="http://www.w3.org/2000/svg" p-id="9838" xmlns:xlink="http://www.w3.org/1999/xlink" width="128" height="128"><defs><style type="text/css"></style></defs><path d="M725.333 320H128c-46.933 0-85.333 38.4-85.333 85.333v384c0 46.934 38.4 85.334 85.333 85.334h597.333c46.934 0 85.334-38.4 85.334-85.334v-384c0-46.933-38.4-85.333-85.334-85.333zM128 362.667h597.333c10.667 0 19.2 4.266 27.734 10.666L456.533 669.867c-8.533 8.533-19.2 12.8-29.866 12.8-10.667 0-21.334-4.267-29.867-12.8L100.267 373.333c8.533-6.4 17.066-10.666 27.733-10.666z m-42.667 55.466l179.2 179.2-179.2 179.2v-358.4z m640 413.867H128c-10.667 0-19.2-4.267-27.733-10.667L294.4 627.2l72.533 72.533c17.067 17.067 38.4 25.6 59.734 25.6 21.333 0 42.666-8.533 59.733-23.466l72.533-72.534 194.134 194.134C744.533 827.733 736 832 725.333 832zM768 776.533l-179.2-179.2 179.2-179.2v358.4z m128-627.2H298.667c-46.934 0-85.334 38.4-85.334 85.334V256c0 12.8 8.534 21.333 21.334 21.333 12.8 0 21.333-8.533 21.333-21.333v-21.333C256 211.2 275.2 192 298.667 192H896c23.467 0 42.667 19.2 42.667 42.667v384c0 23.466-19.2 42.666-42.667 42.666h-21.333c-12.8 0-21.334 8.534-21.334 21.334 0 12.8 8.534 21.333 21.334 21.333H896c46.933 0 85.333-38.4 85.333-85.333v-384c0-46.934-38.4-85.334-85.333-85.334z" p-id="9839"></path></svg>