<?xml version="1.0" standalone="no"?><!DOCTYPE svg PUBLIC "-//W3C//DTD SVG 1.1//EN" "http://www.w3.org/Graphics/SVG/1.1/DTD/svg11.dtd"><svg class="icon" width="200px" height="200.00px" viewBox="0 0 1024 1024" version="1.1" xmlns="http://www.w3.org/2000/svg"><path  d="M166.4 501.76s-232.96 156.16-30.72 335.36c0 0 166.4 125.44 476.16 94.72 0 0 371.2-43.52 360.96-279.04 0 0-33.28-176.64-245.76-192 0 0 271.36 130.56 40.96 294.4 0 0-230.4 140.8-463.36 30.72 0 0-294.4-120.32-94.72-289.28l40.96-30.72-84.48 35.84zM565.76 407.04l117.76 327.68 20.48-23.04L640 345.6 783.36 204.8c40.96-40.96 53.76-76.8 38.4-94.72-7.68-5.12-12.8-7.68-17.92-7.68-7.68 0-33.28 5.12-74.24 46.08L588.8 289.28 220.16 217.6l-23.04 23.04 330.24 122.88-186.88 207.36-143.36-28.16 125.44 89.6 61.44 99.84-17.92-133.12 199.68-192z" /></svg>