<?xml version="1.0" standalone="no"?><!DOCTYPE svg PUBLIC "-//W3C//DTD SVG 1.1//EN" "http://www.w3.org/Graphics/SVG/1.1/DTD/svg11.dtd"><svg class="icon" width="200px" height="200.00px" viewBox="0 0 1024 1024" version="1.1" xmlns="http://www.w3.org/2000/svg"><path d="M318.312 649.831H208.246c-26.848 0-48.677 22.503-48.677 50.16V906.31c0 27.657 21.83 50.16 48.677 50.16h110.066c26.847 0 48.692-22.503 48.692-50.16V699.992c0-27.658-21.846-50.16-48.692-50.16z m17.362 256.478c0 10.386-7.786 18.83-17.362 18.83H208.246c-9.56 0-17.347-8.444-17.347-18.83V699.992c0-10.387 7.786-18.831 17.347-18.831h110.066c9.576 0 17.362 8.444 17.362 18.83V906.31zM569.772 499.136h-110.28c-26.878 0-48.753 22.732-48.753 50.68v355.988c0 27.933 21.875 50.665 48.753 50.665h110.28c26.878 0 48.753-22.732 48.753-50.665V549.816c0-27.948-21.876-50.68-48.753-50.68z m17.424 406.668c0 10.662-7.817 19.336-17.424 19.336h-110.28c-9.607 0-17.424-8.673-17.424-19.336V549.816c0-10.677 7.817-19.351 17.424-19.351h110.28c9.607 0 17.424 8.673 17.424 19.351v355.988zM846.166 373.59H736.1c-26.847 0-48.677 22.9-48.677 51.032v480.815c0 28.131 21.83 51.032 48.677 51.032h110.065c26.847 0 48.676-22.9 48.676-51.032V424.622c0-28.132-21.829-51.032-48.676-51.032z m17.348 531.847c0 10.861-7.786 19.702-17.347 19.702H736.1c-9.56 0-17.347-8.842-17.347-19.702V424.622c0-10.861 7.786-19.703 17.347-19.703h110.065c9.56 0 17.347 8.843 17.347 19.703v480.815zM832.138 158.586l47.161 47.426V63.776H737.816l47.161 47.411-259.386 237.046-141.485-142.221-259.384 237.031 47.16 47.4L384.109 300.82l141.485 142.222z"  /></svg>