<?xml version="1.0" standalone="no"?><!DOCTYPE svg PUBLIC "-//W3C//DTD SVG 1.1//EN" "http://www.w3.org/Graphics/SVG/1.1/DTD/svg11.dtd"><svg class="icon" width="200px" height="200.00px" viewBox="0 0 1024 1024" version="1.1" xmlns="http://www.w3.org/2000/svg"><path  d="M925.9 403H98.1c-6.6 0-12 5.4-12 12v556c0 6.6 5.4 12 12 12h827.8c6.6 0 12-5.4 12-12V415c0-6.6-5.4-12-12-12zM303.2 740.4c-52.4 0-94.8-42.5-94.8-94.8 0-52.4 42.5-94.8 94.8-94.8 52.4 0 94.8 42.5 94.8 94.8 0 52.4-42.5 94.8-94.8 94.8z m417.6 0c-52.4 0-94.8-42.5-94.8-94.8 0-52.4 42.5-94.8 94.8-94.8 52.4 0 94.8 42.5 94.8 94.8 0.1 52.4-42.4 94.8-94.8 94.8zM303.2 645.6m-46 0a46 46 0 1 0 92 0 46 46 0 1 0-92 0ZM720.8 647m-46 0a46 46 0 1 0 92 0 46 46 0 1 0-92 0ZM303 366h-58c-6.6 0-12-5.4-12-12V104c0-6.6 5.4-12 12-12h58c6.6 0 12 5.4 12 12v250c0 6.6-5.4 12-12 12zM766 366h-58c-6.6 0-12-5.4-12-12V104c0-6.6 5.4-12 12-12h58c6.6 0 12 5.4 12 12v250c0 6.6-5.4 12-12 12z" /></svg>