<?xml version="1.0" standalone="no"?><!DOCTYPE svg PUBLIC "-//W3C//DTD SVG 1.1//EN" "http://www.w3.org/Graphics/SVG/1.1/DTD/svg11.dtd"><svg class="icon" width="200px" height="200.00px" viewBox="0 0 1024 1024" version="1.1" xmlns="http://www.w3.org/2000/svg"><path d="M491.52 344.064V27.648s21.504-39.936 46.08 0v315.392H491.52z" fill="#0782FF" /><path d="M373.76 412.672h275.456l145.408 47.104s33.792 16.384 28.672 61.44v404.48s2.048 67.584-57.344 84.992H268.288s-72.704-10.24-72.704-84.992V519.168s0-47.104 29.696-59.392l148.48-47.104z" fill="#0782FF" /><path d="M475.136 524.288s-79.872-13.312-76.8-62.464l19.456-84.992s11.264-36.864 72.704-33.792h74.752s28.672 1.024 40.96 31.744L624.64 460.8s15.36 56.32-79.872 62.464l15.36 38.912H573.44s9.216-1.024 12.288 20.48v139.264s-3.072 11.264-13.312 8.192h-12.288l-13.312 55.296h-66.56l-15.36-55.296H450.56s-10.24 1.024-12.288-8.192V583.68s-2.048-20.48 10.24-20.48h13.312l13.312-38.912z" fill="#FFFFFF" /><path d="M217.088 449.536s-15.36-26.624 14.336-36.864l56.32-16.384s19.456-8.192 29.696 20.48l-100.352 32.768zM246.784 395.264l-33.792-64.512s-12.288-12.288 11.264-20.48l12.288-4.096s14.336-4.096 16.384 13.312l13.312 66.56c1.024 0-3.072 10.24-19.456 9.216zM811.008 453.632s15.36-26.624-14.336-36.864l-56.32-16.384s-19.456-8.192-29.696 20.48l100.352 32.768zM788.48 398.336l33.792-64.512s12.288-12.288-11.264-20.48l-12.288-4.096s-14.336-4.096-16.384 13.312L769.024 389.12c0 1.024 3.072 11.264 19.456 9.216zM193.536 523.264h288.768M538.624 524.288h283.648" fill="#0782FF" /><path d="M274.432 484.352m-22.528 0a22.528 22.528 0 1 0 45.056 0 22.528 22.528 0 1 0-45.056 0Z" fill="#0782FF" /><path d="M344.064 484.352m-22.528 0a22.528 22.528 0 1 0 45.056 0 22.528 22.528 0 1 0-45.056 0Z" fill="#0782FF" /><path d="M687.104 484.352m-22.528 0a22.528 22.528 0 1 0 45.056 0 22.528 22.528 0 1 0-45.056 0Z" fill="#0782FF" /><path d="M758.784 484.352m-22.528 0a22.528 22.528 0 1 0 45.056 0 22.528 22.528 0 1 0-45.056 0Z" fill="#0782FF" /><path d="M443.392 440.32l12.288-41.984s10.24-21.504 19.456-22.528h72.704s22.528-4.096 28.672 23.552l11.264 40.96v1.024c0 4.096 3.072 38.912-26.624 48.128h-83.968c1.024 0-46.08-17.408-33.792-49.152z" fill="#0782FF" /><path d="M705.536 992.256H314.368c-39.936 0-72.704-32.768-72.704-72.704v-41.984c0-39.936 32.768-72.704 72.704-72.704h391.168c39.936 0 72.704 32.768 72.704 72.704v41.984c0 39.936-32.768 72.704-72.704 72.704z" fill="#FFFFFF" /><path d="M193.536 796.672l628.736 8.192M522.24 713.728h-17.408c-16.384 0-28.672-13.312-28.672-28.672v-71.68c0-16.384 13.312-28.672 28.672-28.672H522.24c16.384 0 28.672 13.312 28.672 28.672v71.68c0 15.36-12.288 28.672-28.672 28.672z m28.672-114.688h-75.776v7.168h75.776v-7.168z m0 16.384h-75.776v7.168h75.776v-7.168z m0 15.36h-75.776v7.168h75.776v-7.168z m0 16.384h-75.776v7.168h75.776v-7.168z m0 15.36h-75.776v7.168h75.776v-7.168z m0 16.384h-75.776v7.168h75.776v-7.168z m0 15.36h-75.776v7.168h75.776v-7.168z" fill="#0782FF" /><path d="M324.608 655.36m-101.376 0a101.376 101.376 0 1 0 202.752 0 101.376 101.376 0 1 0-202.752 0Z" fill="#0782FF" /><path d="M324.608 655.36m-78.848 0a78.848 78.848 0 1 0 157.696 0 78.848 78.848 0 1 0-157.696 0Z" fill="#F6F6F6" /><path d="M251.904 626.688h146.432M251.904 685.056h146.432" fill="#0782FF" /><path d="M359.424 672.768h-69.632c-7.168 0-12.288-6.144-12.288-12.288v-7.168c0-7.168 6.144-12.288 12.288-12.288h69.632c7.168 0 12.288 6.144 12.288 12.288v7.168c1.024 7.168-5.12 12.288-12.288 12.288z" fill="#0782FF" /><path d="M308.224 640h7.168v32.768h-7.168zM321.536 640h7.168v32.768h-7.168zM333.824 640h7.168v32.768h-7.168z" fill="#0782FF" /><path d="M694.272 646.144m-97.28 0a97.28 97.28 0 1 0 194.56 0 97.28 97.28 0 1 0-194.56 0Z" fill="#0782FF" /><path d="M694.272 646.144m-75.776 0a75.776 75.776 0 1 0 151.552 0 75.776 75.776 0 1 0-151.552 0Z" fill="#F6F6F6" /><path d="M620.544 626.688h146.432M629.76 685.056h130.048" fill="#0782FF" /><path d="M728.064 672.768h-69.632c-7.168 0-12.288-6.144-12.288-12.288v-7.168c0-7.168 6.144-12.288 12.288-12.288h69.632c7.168 0 12.288 6.144 12.288 12.288v7.168c1.024 7.168-5.12 12.288-12.288 12.288z" fill="#0782FF" /><path d="M676.864 640h7.168v32.768h-7.168zM690.176 640h7.168v32.768h-7.168zM702.464 640h7.168v32.768h-7.168z" fill="#0782FF" /></svg>