<?xml version="1.0" standalone="no"?><!DOCTYPE svg PUBLIC "-//W3C//DTD SVG 1.1//EN" "http://www.w3.org/Graphics/SVG/1.1/DTD/svg11.dtd"><svg t="1583570347735" class="icon" viewBox="0 0 1024 1024" version="1.1" xmlns="http://www.w3.org/2000/svg" p-id="10775" xmlns:xlink="http://www.w3.org/1999/xlink" width="200" height="200"><defs><style type="text/css"></style></defs><path d="M512.8192 555.008l116.608 0 0-145.2032-116.608 0L512.8192 555.008zM512 0C229.2224 0 0 229.2224 0 512s229.2224 512 512 512c282.7776 0 512-229.2224 512-512S794.7776 0 512 0zM350.0032 768.4096 308.224 768.4096 308.224 469.1968c-17.5872 29.3632-36.6848 56.4736-57.1904 81.408-7.3472-23.4496-13.2096-39.6032-17.6128-48.4096 60.1344-80.64 104.1152-165.7344 131.9936-255.2064l41.8048 15.4112c-16.1536 45.4656-35.2 88.7552-57.1904 129.792L350.0288 768.4096zM411.6224 768.4096c-2.944-1.4848-8.8064-6.6048-17.5872-15.4112-8.8064-8.8064-14.6688-13.952-17.6128-15.4112 51.328-39.6032 95.3344-82.1248 131.9936-127.5904l37.4016 26.3936C510.6176 677.4784 465.8688 721.4336 411.6224 768.4096zM730.624 766.208c-35.2-36.6848-79.9488-79.9232-134.1952-129.792l30.7968-26.3936c29.312 24.96 68.9152 60.8768 118.8096 107.8016 8.8064 7.3216 15.4112 13.2096 19.7888 17.6128L730.624 766.208zM768 594.6112 380.8256 594.6112 380.8256 555.008l90.1888 0 0-145.2032-68.1984 0 0-39.6032 68.1984 0L471.0144 251.392l41.8048 0 0 118.8096 116.608 0L629.4272 251.392l44.0064 0 0 118.8096 74.8032 0 0 39.6032-74.8032 0 0 145.2032L768 555.008 768 594.6112z" p-id="10776"></path></svg>