<?xml version="1.0" standalone="no"?><!DOCTYPE svg PUBLIC "-//W3C//DTD SVG 1.1//EN" "http://www.w3.org/Graphics/SVG/1.1/DTD/svg11.dtd"><svg t="1583570322832" class="icon" viewBox="0 0 1024 1024" version="1.1" xmlns="http://www.w3.org/2000/svg" p-id="9408" xmlns:xlink="http://www.w3.org/1999/xlink" width="200" height="200"><defs><style type="text/css"></style></defs><path d="M512.00512 63.89248c-247.49056 0-448.11264 200.62208-448.11264 448.11264s200.62208 448.11264 448.11264 448.11264 448.11264-200.62208 448.11264-448.11264-200.62208-448.11264-448.11264-448.11264z m-220.7232 293.20192h196.41344v-26.9568h-173.312v-26.95168h377.40032v26.95168h-171.35616v26.9568h198.33344v88.56576h-34.68288v-59.68384h-163.67104v113.59232h-32.73728v-113.59232h-161.7408v59.68384h-34.6624v-88.56576h0.02048z m254.17216 78.93504v-25.03168h109.74208v25.03168h-109.74208z m109.74208 26.97216v25.03168h-109.74208v-25.03168h109.74208z m-300.36992-26.97216v-25.03168h107.83744v25.03168h-107.83744z m107.81696 26.97216v25.03168h-107.83744v-25.03168h107.83744z m271.5136 80.86528h-219.50976l-7.7056 36.58752h184.84224v96.27648c1.25952 34.6624-14.76096 51.33312-48.128 50.05312h-46.21824c-1.30048-8.9856-3.2256-20.54656-5.7856-34.6624h13.4912c12.81536 1.25952 22.4512 1.93024 28.8768 1.93024 17.9712 1.2544 26.30656-7.06048 25.03168-25.02656v-61.61408h-84.71552v115.52256h-32.73216v-115.52256h-77.0304v115.52256h-32.73728v-115.52256h-78.93504v123.22816h-34.6624V580.4544h154.04032l5.7856-36.58752h-202.16832v-28.8768h458.26048v28.8768z" p-id="9409"></path></svg>